<svg width="30" height="30" viewBox="0 0 30 30" fill="none" xmlns="http://www.w3.org/2000/svg">
<path d="M2.8125 16.875H27.1875C27.1875 3.75 25.3125 0.9375 15 0.9375C4.6875 0.9375 2.8125 3.75 2.8125 16.875Z" fill="#DBB471"/>
<path d="M26.1562 14.0156C26.0625 14.5313 25.9687 15 25.8281 15.2813C25.5469 15.75 25.0313 16.0313 25.0313 16.0313C25.0313 16.0313 25.1719 15.0469 25.125 13.6875C24.5625 5.53125 24.0937 7.78125 15 7.78125C5.90625 7.78125 5.4375 5.53125 4.875 13.6406C4.82812 15 4.96875 16.0313 4.96875 16.0313C4.96875 16.0313 4.45312 15.75 4.17187 15.2813C4.03125 15 3.9375 14.5313 3.84375 14.0156C3 13.7813 1.875 13.9688 1.875 16.4063C1.875 17.9063 2.4375 19.1719 4.35938 19.3125C4.96875 24.0938 7.78125 26.5313 12.4219 28.6406C13.6875 29.2031 16.3125 29.2031 17.5781 28.6406C22.2656 26.5313 25.0313 24.0938 25.6406 19.3125C27.5625 19.1719 28.125 17.9531 28.125 16.4063C28.125 13.9688 27 13.7813 26.1562 14.0156Z" fill="#FED0AC"/>
<path d="M19.2188 22.9219C19.2188 24.5156 17.1094 25.3125 15 25.3125C12.8906 25.3125 10.7812 24.5156 10.7812 22.9219C10.7812 22.9219 10.7812 22.5 11.2031 22.5H18.7969C19.2187 22.5 19.2188 22.9219 19.2188 22.9219" fill="#664E27"/>
<path d="M9.375 13.4062C7.03125 13.4062 6.09375 14.25 6.09375 15.0938C6.09375 15.9375 6.09375 17.1563 9.1875 17.1563C12.1875 17.1563 12.6562 16.7813 12.6562 15.5156C12.6562 14.6719 11.7188 13.4062 9.375 13.4062Z" fill="#F5F5F5"/>
<path d="M9.60938 16.9219C10.7744 16.9219 11.7188 15.9775 11.7188 14.8125C11.7188 13.6475 10.7744 12.7031 9.60938 12.7031C8.4444 12.7031 7.5 13.6475 7.5 14.8125C7.5 15.9775 8.4444 16.9219 9.60938 16.9219Z" fill="#664E27"/>
<path d="M10.3125 14.8125C10.3125 15.1875 9.98438 15.5156 9.60938 15.5156C9.23437 15.5156 8.90625 15.1875 8.90625 14.8125C8.90625 14.4375 9.23437 14.1094 9.60938 14.1094C9.98438 14.1094 10.3125 14.4375 10.3125 14.8125Z" fill="#231F20"/>
<path d="M6.09375 15.0469C6.09375 11.7656 12.6562 11.7656 12.6562 15.5156C11.7188 12.7031 7.03125 12.7031 6.09375 15.0469Z" fill="#664E27"/>
<path d="M20.625 13.4062C22.9688 13.4062 23.9062 14.25 23.9062 15.0938C23.9062 15.9375 23.9063 17.1563 20.8125 17.1563C17.8125 17.1563 17.3438 16.7813 17.3438 15.5156C17.3438 14.6719 18.2812 13.4062 20.625 13.4062Z" fill="#F5F5F5"/>
<path d="M20.3906 16.9219C21.5556 16.9219 22.5 15.9775 22.5 14.8125C22.5 13.6475 21.5556 12.7031 20.3906 12.7031C19.2256 12.7031 18.2812 13.6475 18.2812 14.8125C18.2812 15.9775 19.2256 16.9219 20.3906 16.9219Z" fill="#664E27"/>
<path d="M19.6875 14.8125C19.6875 15.1875 20.0156 15.5156 20.3906 15.5156C20.7656 15.5156 21.0938 15.1875 21.0938 14.8125C21.0938 14.4375 20.7656 14.1094 20.3906 14.1094C20.0156 14.1094 19.6875 14.4375 19.6875 14.8125Z" fill="#231F20"/>
<path d="M23.9062 15.0469C23.9062 11.7656 17.3438 11.7656 17.3438 15.5156C18.2812 12.7031 22.9688 12.7031 23.9062 15.0469Z" fill="#664E27"/>
<path d="M14.9999 21.0938C13.0312 21.0938 12.0468 19.6875 13.0312 19.6875H16.9687C17.9531 19.6875 16.9687 21.0938 14.9999 21.0938Z" fill="#E0A372"/>
</svg>
